# xmcd CD database file
#
# Track frame offsets:
#	150
#	11624
#	21935
#	33494
#	44154
#	52851
#	63785
#	75142
#	83972
#	96611
#	107400
#	118424
#	129155
#	140379
#	151922
#	162769
#	173154
#	183417
#	193880
#	203620
#
# Disc length: 2867 seconds
#
# Revision: 1
# Processed by: cddbd v1.5.2PL0 Copyright (c) Steve Scherf et al.
# Submitted via: CDex 1.51
#
DISCID=030b3114
DTITLE=Patsy Cline - Walkin' After Midnight
DYEAR=2001
DGENRE=Country
TTITLE0=Walkin' After Midnight
TTITLE1=Too Many Secrets
TTITLE2=Let The Teardrops Fall
TTITLE3=Honkey Tonk Merry Go Round
TTITLE4=Ain't No Wheels On This Ship
TTITLE5=I Can't Forget
TTITLE6=Dear God
TTITLE7=Try Again
TTITLE8=Yes, I Understand
TTITLE9=I Cried All The Way Home
TTITLE10=Don't Ever Leave Me Again
TTITLE11=Stop, Look And Listen
TTITLE12=Just Out Of Reach
TTITLE13=Never No More
TTITLE14=I Don't Wanta
TTITLE15=I Love You Honey
TTITLE16=Walking Dream
TTITLE17=He Will Do For You
TTITLE18=I'm Blue Again
TTITLE19=I've Loved And Lost Again
EXTD=YEAR: 2001
EXTT0=
EXTT1=
EXTT2=
EXTT3=
EXTT4=
EXTT5=
EXTT6=
EXTT7=
EXTT8=
EXTT9=
EXTT10=
EXTT11=
EXTT12=
EXTT13=
EXTT14=
EXTT15=
EXTT16=
EXTT17=
EXTT18=
EXTT19=
PLAYORDER=
